solid 
facet normal 0 0 1
 outer loop
  vertex 6.250001 6.250001 6.250001
  vertex -6.250001 6.250001 6.250001
  vertex -6.250001 -6.250001 6.250001
 endloop
endfacet
facet normal 0 -0 1
 outer loop
  vertex 6.250001 6.250001 6.250001
  vertex -6.250001 -6.250001 6.250001
  vertex 6.250001 -6.250001 6.250001
 endloop
endfacet
facet normal 0 -1 0
 outer loop
  vertex 6.250001 -6.250001 -6.250001
  vertex 6.250001 -6.250001 6.250001
  vertex -6.250001 -6.250001 6.250001
 endloop
endfacet
facet normal 0 -1 0
 outer loop
  vertex 6.250001 -6.250001 -6.250001
  vertex -6.250001 -6.250001 6.250001
  vertex -6.250001 -6.250001 -6.250001
 endloop
endfacet
facet normal -1 -0 -0
 outer loop
  vertex -6.250001 -6.250001 -6.250001
  vertex -6.250001 -6.250001 6.250001
  vertex -6.250001 6.250001 6.250001
 endloop
endfacet
facet normal -1 -0 0
 outer loop
  vertex -6.250001 -6.250001 -6.250001
  vertex -6.250001 6.250001 6.250001
  vertex -6.250001 6.250001 -6.250001
 endloop
endfacet
facet normal 0 0 -1
 outer loop
  vertex -6.250001 6.250001 -6.250001
  vertex 6.250001 6.250001 -6.250001
  vertex 6.250001 -6.250001 -6.250001
 endloop
endfacet
facet normal 0 0 -1
 outer loop
  vertex -6.250001 6.250001 -6.250001
  vertex 6.250001 -6.250001 -6.250001
  vertex -6.250001 -6.250001 -6.250001
 endloop
endfacet
facet normal 1 -0 0
 outer loop
  vertex 6.250001 6.250001 -6.250001
  vertex 6.250001 6.250001 6.250001
  vertex 6.250001 -6.250001 6.250001
 endloop
endfacet
facet normal 1 -0 0
 outer loop
  vertex 6.250001 6.250001 -6.250001
  vertex 6.250001 -6.250001 6.250001
  vertex 6.250001 -6.250001 -6.250001
 endloop
endfacet
facet normal 0 1 0
 outer loop
  vertex -6.250001 6.250001 -6.250001
  vertex -6.250001 6.250001 6.250001
  vertex 6.250001 6.250001 6.250001
 endloop
endfacet
facet normal 0 1 -0
 outer loop
  vertex -6.250001 6.250001 -6.250001
  vertex 6.250001 6.250001 6.250001
  vertex 6.250001 6.250001 -6.250001
 endloop
endfacet
endsolid 
